<svg xmlns="http://www.w3.org/2000/svg" xmlns:svg="http://www.w3.org/2000/svg" id="svg3336" width="1868" height="800pt" version="1.1" viewBox="0 0 1401 800"><metadata id="metadata3436"/><path style="fill:#e2002e" id="path3340" d="M 1332.6914 20.085938 C 1215.4328 24.615302 1151.482 62.393549 1096.5 111.5 C 1056.9047 151.12375 1030.4911 204.37186 1027.8379 263.76172 C 1027.2754 270.53672 1026.7879 277.325 1027.0879 284.125 C 1010.3754 285.7625 993.31328 282.9375 976.80078 286.875 C 933.02318 297.84649 871.75372 330.00579 865.32422 387.875 C 857.97422 389.2625 851.13672 385.15 843.82422 385.5625 C 824.59922 385.625 805.38828 385.5621 786.17578 385.59961 C 770.20323 385.76322 752.23113 391.79622 738.90039 402.01172 C 726.86268 394.14162 718.42925 388.45706 702.58789 386.41211 C 675.01139 380.78497 639.08938 385.49227 609.6875 389.63672 C 598.6388 391.95072 586.72793 403.56807 579.58789 413.76172 C 573.73789 410.21172 568.35039 405.93789 562.33789 402.65039 C 494.30124 372.35133 375.40382 390.56822 368.43164 399.74805 C 337.79894 380.65348 284.01776 387.0704 246.19922 391.28711 C 248.96172 376.82461 253.65078 362.78711 256.30078 348.28711 C 259.24197 325.32681 239.54792 297.35477 216.78711 289.51172 C 179.51916 281.45741 124.67554 278.42552 90 301.66211 C 46.924831 340.8809 54.319049 762.63907 90 775.84961 C 98.333249 784.54326 103.86185 785.22865 122.625 788.21289 C 145.5 788.68789 168.40039 788.2125 191.27539 788.4375 C 212.17613 788.14344 232.8294 780.99333 245.09961 765.53711 C 250.27461 771.88711 256.92422 776.82578 263.88672 781.05078 C 307.75083 797.36119 347.21474 784.42223 388.42578 783.11328 C 393.21328 782.21328 396.80078 778.44961 401.36328 777.16211 C 408.98828 778.43711 416.38828 780.81172 423.98828 782.26172 C 471.97733 792.01873 521.65954 788.18794 574.21289 786.23828 C 590.17539 784.98828 605.57461 780.22461 621.03711 776.47461 C 661.62366 798.68858 719.18694 792.96896 755.94922 781.8125 C 760.77422 784.55 765.38711 787.925 770.97461 789 C 798.61867 795.23251 833.0852 798.64801 863.09961 789 C 869.92461 787.0875 875.23789 782.18711 881.15039 778.53711 C 891.15617 784.98655 907.06347 789.1619 917.48828 788.5 C 941.16328 788.45 964.85039 788.10078 988.52539 788.67578 C 984.17539 827.37578 982.1625 866.3125 982.125 905.25 L 983.30078 905.27539 C 986.23828 902.45039 988.83828 897.97461 993.48828 898.22461 C 1039.4251 898.92936 1092.8856 905.00783 1143.125 906.73828 C 1150.112 878.59123 1151.8376 866.27906 1165.1992 846.44922 C 1170.4867 840.62422 1178.9375 838.32422 1186.5625 839.63672 C 1201.5403 843.54432 1213.2216 868.08981 1231.7383 878.22461 C 1277.5162 921.37412 1318.8609 962.14897 1360.6719 966.13477 C 1406.6832 979.70273 1439.0352 973.80135 1476.8242 960.625 C 1528.398 944.28461 1566.624 905.22938 1594.4121 860.69922 C 1629.0276 802.46058 1645.392 740.95428 1646.9629 665.90039 C 1647.3379 662.18789 1647.2254 658.28828 1648.7129 654.80078 C 1650.8629 651.96328 1654.0754 650.2125 1656.9004 648.125 C 1601.6329 635.24111 1542.2069 627.04818 1481.4746 619.02539 C 1475.309 642.8848 1472.7684 673.54543 1455.0371 695.05078 C 1448.8121 701.38828 1439.0125 701.62461 1430.8125 700.22461 C 1401.9929 690.0083 1376.0556 656.29671 1345.7246 640.5 C 1336.9121 634.875 1327.3371 630.61289 1317.8496 626.27539 C 1308.5246 626.03789 1299.1758 625.88672 1289.9258 624.63672 C 1300.0633 620.58672 1310.7121 618.1125 1321.0996 614.8125 C 1390.9976 594.41099 1467.5546 582.60925 1534.9375 538.6875 C 1584.6982 510.28035 1645.0875 466.65208 1667.8711 406.42578 C 1675.3836 386.57578 1674.5633 360.18711 1676.6758 339.16211 C 1675.8633 324.51211 1676.8629 309.78789 1674.7754 295.21289 C 1668.6804 235.78753 1655.6095 201.66323 1599.8184 139.42578 C 1588.4111 128.37418 1574.4886 113.93989 1556.5879 102.16211 C 1540.5504 90.312108 1523.7992 79.300781 1505.9492 70.363281 C 1500.2492 67.513281 1496.8496 61.75 1491.3496 58.625 C 1487.6496 56.4625 1484.3871 53.662109 1481.5371 50.474609 C 1434.6035 30.658203 1383.6502 20.258102 1332.6914 20.085938 z M 1296.0254 196.08789 C 1337.3335 199.06565 1375.3325 218.7631 1388.8125 263.53711 C 1391.9 280.93711 1390.9117 299.07422 1385.8242 316.01172 C 1380.3367 332.78672 1372.075 349.3125 1358.75 361.25 C 1331.1375 386.825 1298.8758 406.81172 1265.6133 424.13672 C 1222.5205 448.85326 1168.3022 477.52004 1136.5996 505.33789 C 1118.5863 520.98985 1101.6248 536.48298 1086.5625 552.8125 C 1065.9539 574.33362 1054.5227 598.50756 1040.0879 622.57422 C 1038.0629 626.03672 1035.6008 629.42422 1035.1133 633.51172 C 1031.4883 601.89922 1027.3375 570.21211 1027.125 538.34961 C 1032.325 539.27461 1037.7008 539.40078 1042.8008 537.80078 C 1065.3788 531.38762 1086.9715 519.90298 1091.4492 497.57422 C 1097.3949 472.14928 1100.947 438.08648 1085.125 416.11328 C 1083.0839 409.83554 1088.8404 398.57707 1090.3867 392.34961 C 1120.8739 409.76703 1158.3984 428.77738 1191.4492 421.48828 C 1204.6742 419.12578 1218.05 416.51211 1230.3125 410.84961 C 1250.825 402.99961 1270.0625 391.225 1285.375 375.375 C 1306.6375 353.4875 1319.6867 324.19922 1322.9492 293.94922 C 1325.3117 272.59922 1323.1871 250.61211 1315.5371 230.47461 C 1311.1871 217.89961 1303.9379 206.66289 1296.0254 196.08789 z M 735.8125 514.73828 C 742.47314 545.77579 743.63523 584.89382 740.48828 612.52539 C 738.77109 619.67939 738.04887 627.94127 732.83789 632.65039 C 729.93789 622.88789 729.8875 612.59922 729.3125 602.51172 C 728.65 573.16172 729.8125 543.53828 735.8125 514.73828 z" transform="scale(0.8,0.8)"/><path id="path3342" d="m 1185.23,40.38 c 39.74,16.21 76.08,41.11 104.61,73.25 -0.62,1.46 -1.22,2.92 -1.78,4.39 4.53,7.29 10.63,13.45 15.22,20.73 8.34,12.75 17.11,25.65 21.8,40.28 -2.52,-3.97 -4.83,-8.06 -6.77,-12.34 -11.16,-22.05 -26.9,-41.35 -43.58,-59.42 -3.55,-3.47 -7.51,-6.47 -10.98,-10.02 -5.63,-5.78 -12.11,-10.61 -18.48,-15.52 -12.83,-9.48 -26.23,-18.29 -40.51,-25.44 -4.56,-2.28 -7.28,-6.89 -11.68,-9.39 -2.96,-1.73 -5.57,-3.97 -7.85,-6.52 z" style="fill:#d30226"/><path id="path3344" d="m 1089.01,53.62 c 48.72,4.53 96.58,21.35 136.38,50.02 31.2508,23.70546 58.5046,54.37775 73.05,87.84 18.3593,56.1391 18.8692,113.9034 -16.68,157.27 -38.9157,43.53256 -86.6486,72.00813 -138.33,86.77 -51.67,15.53 -105.17,27.71 -152.62,54.33 -22.00708,15.77634 -45.88999,38.85284 -51.97,63.58 29.51703,-23.24464 76.2286,-26.68301 105.66,-15.83 21.26,8.82 37.88,25.25 56.03,38.89 24.2275,18.19915 56.237,29.88819 80.92,11.99 16.27,-11.85 26.76,-30.34 31.68,-49.6 0.4,-2.26 2.33,-4.57 4.85,-4.02 20.3,2.92 40.55,6.24 60.77,9.73 3.03,0.7 7.69,0.5 8.39,4.43 -1.78,27.94 -7.5,55.68 -16.94,82.06 -16.8299,46.85251 -52.4522,91.13924 -94.81,108.41 -41.4531,14.50362 -81.6678,7.47646 -113.92,-16.98 -36.1915,-25.66175 -62.25394,-67.42328 -102.27,-78.56 -13.45,-3.61 -28.63,-2.01 -40.25,5.97 -12.71,8.61 -20.87,22.56 -25.08,37.08 -1.30639,5.28588 -2.53244,7.36266 -7.83,7.43 -19.93,-1.52 -39.89,-2.56 -59.82,-4.07 -2.63,-0.07 -3.99,-2.97 -3.64,-5.31 0.38,-23.5 2.49,-46.99 6.51,-70.15 0.5,-4.6 4.84,-7.45 5.82,-11.87 1.24,-5.07 2.46,-10.14 3.58,-15.23 1.13,-4.9 -1.18,-9.95 0.43,-14.77 9.17,-30.57 22.56,-60.02 40.96,-86.17 21.59246,-28.8017 45.20613,-51.59384 72.24,-70.76 45.64,-32.88 99.94,-51.72 144.06,-86.9 34.8771,-26.87228 57.7574,-74.12169 53.41,-113.46 -3.48,-27.68 -16.54,-55.15 -39.24,-72.09 -31.9436,-21.47779 -76.431,-27.64536 -109.61,-16.04 -13.69012,6.62644 -32.78755,17.22647 -38.96,29.23 5.22,0.92 10.64,0.33 15.78,1.8 15.36,4.01 28.11,15.26 35.84,28.9 17.13,29.49 9.8,70.64 -16.32,92.54 -43.36305,25.3865 -85.58349,26.8267 -117.14,-8.03 -4.12,-4.11 -3.19,-10.54 -5.61,-15.5 -3.12,-5.88 -7.66,-10.86 -11.91,-15.86 -13.10886,-48.93883 15.01405,-101.67093 46.97,-131.3 48.96154,-43.515104 121.1872,-60.52452 179.62,-55.77 z" style="fill:#fff"/><path id="path3346" d="m 1288.06,118.02 c 0.56,-1.47 1.16,-2.93 1.78,-4.39 27.47,29.84 47.79,66.82 54.99,106.95 -1.53,1.37 -4.23,2.37 -4.03,4.81 0.22,5.22 1.51,10.35 1.37,15.6 -0.16,10.11 1.08,20.32 -0.83,30.34 -0.65,-11.72 0.15,-23.5 -1.52,-35.16 -1.88,-19.69 -7.42,-38.82 -14.74,-57.14 -4.69,-14.63 -13.46,-27.53 -21.8,-40.28 -4.59,-7.28 -10.69,-13.44 -15.22,-20.73 z" style="fill:#c80b22"/><path id="path3348" d="m 1021.57,149.81 c 1.12,-0.29 2.26,-0.53 3.42,-0.73 26.22,-1.8 53.63,5.89 73.59,23.35 3.59,3.04 6.69,6.65 9.28,10.58 3.03,4.8 5.56,9.95 7.14,15.42 -0.85,4.46 -1.53,8.95 -2.17,13.45 -0.44,-0.26 -1.34,-0.79 -1.78,-1.05 -1.49,-7.52 -3.99,-15.03 -8.75,-21.14 -8.47,-10.88 -20.19,-18.81 -32.66,-24.43 -10.38,-4.57 -21.45,-7.81 -32.82,-8.39 -5.6,-0.91 -10.54,-4.08 -15.25,-7.06 z" style="fill:#cb0724"/><path id="path3352" d="m 1107.86,183.01 c 1.03,-0.41 2.08,-0.79 3.16,-1.16 2.77,2.22 5.67,4.8 6.6,8.38 0.75,4.22 0.37,8.53 0.16,12.78 -0.99,-1.48 -2.01,-2.97 -2.78,-4.58 -1.58,-5.47 -4.11,-10.62 -7.14,-15.42 z" style="fill:#e42138"/><path id="path3354" d="m 1047.2,186.06 c 1.52,-1.14 3.31,-1.71 5.23,-1.68 6.12,16.11 7.82,33.7 5.93,50.78 -0.39,-0.59 -1.18,-1.76 -1.57,-2.35 -5.05,5.38 -5.77,12.95 -8.52,19.49 -0.33,-6.27 2.19,-12.19 2.51,-18.4 0.5,-8.96 0.71,-17.97 0.15,-26.93 -0.41,-7.1 -2.44,-13.95 -3.73,-20.91 z" style="fill:#d10426"/><path id="path3356" d="m 1340.8,225.39 c -0.2,-2.44 2.5,-3.44 4.03,-4.81 3.6,18.87 4.8,38.26 2.88,57.39 -2.93,32.64 -14.93,64.63 -35.42,90.33 -13.21,16.98 -28.67,32.18 -45.71,45.29 -27.82,21.4 -59.49,37.28 -92.14,49.88 -15.19,5.56 -30.78,9.9 -46.18,14.82 -24.61,7.74 -49.4,14.91 -73.98,22.73 -7.46,-0.19 -14.94,-0.31 -22.34,-1.31 8.11,-3.24 16.63,-5.22 24.94,-7.86 25.76,-7.52 51.54,-15 77.23,-22.77 15.07,-4.79 30.46,-8.68 45.05,-14.87 16.69,-6.79 33.2,-14.18 48.79,-23.26 30.06,-16.9 57.46,-39.04 78.63,-66.38 10.46,-13.07 18.72,-27.92 24.3,-43.7 6.01,-15.88 8.77,-32.72 10.46,-49.54 1.91,-10.02 0.67,-20.23 0.83,-30.34 0.14,-5.25 -1.15,-10.38 -1.37,-15.6 z" style="fill:#be111d"/><path id="path3358" d="m 1048.27,252.3 c 2.75,-6.54 3.47,-14.11 8.52,-19.49 0.39,0.59 1.18,1.76 1.57,2.35 -2.61,24.2 -13.05,47.63 -30.06,65.14 -12.25,12.68 -27.64,22.1 -44.05,28.38 4.29,-5.03 10.43,-7.79 15.33,-12.1 1.98,-1.7 3.8,-3.59 5.67,-5.41 4.69,-4.31 10.16,-7.71 14.58,-12.34 10.29,-9.56 18.35,-21.43 23.71,-34.38 1.7,-4 3.14,-8.1 4.73,-12.15 z" style="fill:#be111d"/><path id="path3360" d="m 98.82,263.89 c 1.88,-1.89 4.69,-1.67 7.13,-1.71 16.36,0.06 32.72,-0.01 49.08,0.03 5.35,-0.09 11.16,2 14.04,6.76 3.01,4.67 1.78,10.57 0.37,15.57 -8.34461,49.04272 -23.21677,112.93905 -14.19,156.46 13.6562,-5.84793 25.98103,-19.63022 33.73,-30.94 17.675,-22.14205 15.34182,-41.66956 21.2,-63.21 1.74,-3.07 5.42,-4.32 8.78,-4.2 15.34,0.01 30.68,0.21 46.02,-0.15 5.28,-0.03 11.34,1.44 14.25,6.28 3.68578,7.94386 1.03144,15.79381 1.07,23.38 5.7274,-8.16664 14.02287,-14.22034 22.74,-21.18 18.96,-10.82 41.38,-14.18 62.96,-13.82 25.89,-0.27 52.66,4.92 74.57,19.29 23.93656,18.63448 31.13163,39.25584 36.93,62.57 1.03,-1.85 2.1,-3.76 2.34,-5.9 2.47,-21.68 4.37,-44.05 13.72,-64.08 1.89,-3.39 5.28,-6.45 9.38,-6.32 14.35,-0.07 28.71,0.02 43.06,-0.03 5.99,-0.03 12.29,-0.96 17.98,1.45 4.25,1.7 7.16,6.27 6.56,10.88 -0.62,4.37 -2.62,8.38 -4.03,12.53 -13.56778,50.41165 -27.9057,107.02147 -10.76,153.55 8.64267,21.74703 30.99562,25.04758 49.16,15.77 10.83,-5.3 16.14,-17.18 19.71,-28.05 6.21,-21.59 6.59,-44.45 4.72,-66.7 -2.43,-27.08 -8.04,-53.74 -13.94,-80.24 -1.49,-5.64 -2.09,-11.92 1.37,-16.99 18.54429,-4.71374 40.43283,-2.19 60.28,-2.19 3.67,-0.12 6.77,2.1 9.9,3.69 9.14461,-5.33684 19.56608,-1.74882 28.09,-5.37 5.46,-2.4 7.67,-8.35 9.42,-13.6 3.47,-10.68 4.97,-22.18 10.94,-31.89 14.67221,-21.96614 39.56317,-33.82597 63.61,-33.33 9.32,-0.53 18.7,-0.53 27.99,0.59 2.43,0.13 3.72,2.3 5.09,4.01 3.49,4.36 5.36,9.77 8.95,14.07 1.05,1.55 2.89,2.9 2.55,5 -0.59,7.55 -2.49,14.94 -4.48,22.23 -1.79,5.5 -3.58,11.53 -8.16,15.39 -7.11572,2.50964 -13.95834,-3.45978 -19.82,-3 -7.77082,1.76015 -15.14014,14.71068 -15.49,20.48 1.35,4.32 6.8,3.85 10.36,3.29 9.43,-1.68 20.05,-3.23 28.63,2.14 11.11907,8.83126 10.26682,32.05334 5.93,42.19 -1.42,2.58 -3.24,5.66 -6.35,6.3 -4.42,0.02 -8.84,-0.17 -13.22,-0.73 -1.9,-0.46 -3.79,-0.98 -5.69,-1.37 -6.05,-1.3 -13.49,-2.59 -18.42,2.15 -7.35,5.18 -9.28,14.54 -9.5,22.99 0.16762,50.79908 7.35793,99.46277 14.48,146.05 0.16,1.51 0.66,3.06 0.36,4.6 -2.69429,9.13802 -5.20813,16.31747 -5.88,25.52 l 0.2,0.86 c -19.83,-0.62 -39.7,-0.2 -59.54,-0.25 -3.9,-0.22 -8.6,1.08 -11.73,-1.93 -4.39,-4.23 -5.29,-10.61 -6.4,-16.31 -2.86,-19.68 -3.5,-39.61 -3.65,-59.47 -1.63883,-39.60827 1.16741,-74.39984 1.19,-110.01 -0.14,-4.74 -0.88,-10.37 -5.11,-13.27 -3.04,-1.73 -7.15,-2.92 -10.2,-0.58 -1.23,1.29 -0.33,3.24 -0.45,4.82 2.40481,53.68154 4.22202,107.66549 -1.45,157.25 -3.03678,16.64371 -6.10085,40.72377 -23.95,44.74 -14.84806,0.86645 -43.29144,4.0748 -51.07,-5.12 -5.06,-3.61 -3.32,-10.44 -5.42,-15.52 -4.87,-0.7 -8.96,2 -12.64,4.79 -10.51,7.15 -22.03,13.72 -34.78,15.51 -46.324,6.70295 -73.69327,-13.84816 -87.86,-56.31 -1.80545,13.97409 3.1674,27.01802 3.03,38.74 -0.01,2.95 -1.7,5.93 -4.4,7.21 -36.75335,6.85356 -74.7942,6.00397 -109.34,4.96 -24.79376,0.0121 -48.5902,-7.14766 -65.37,-14.3 -1.31995,6.39944 -3.51961,12.59045 -8.2,14.43 -19.72,0.53 -39.46,0.06 -59.2,0.27 -4.83,-0.05 -10.38,0.07 -14.13,-3.48 -3.8,-3.61 -3.71,-9.28 -4.07,-14.12 -0.33,-20.41 -5.59,-40.66 -14.68,-58.91 -5.06,-10.06 -11.38,-19.86 -20.31,-26.91 -3.71,-3.16 -8.97,-2.26 -12.89,-0.02 -5.65,2.76 -11.78,6.21 -14.18,12.4 -5.68652,29.37593 8.83581,57.60504 10.81,82.47 0.28,4.08 -2.73,8.86 -7.2,8.66 -21.12,-0.1 -42.24,0.06 -63.36,-0.06 -4.15,0.18 -7.22,-3.25 -8.79,-6.73 -3.17,-6.9 -4.32,-14.5 -5.51,-21.94 -6.659317,-83.80207 -6.98917,-174.96507 0.08,-252.5 1.35,-11.89 2.79,-23.87 6.16,-35.39 1.45,-5.1 3.91,-9.84 6.89,-14.19 z" style="fill:#fff"/><path id="path3362" d="m 93.2,270.25 c 1.19,-2.64 3.23,-4.76 5.62,-6.36 -2.98,4.35 -5.44,9.09 -6.89,14.19 -3.37,11.52 -4.81,23.5 -6.16,35.39 -3.18,32.35 -4.14,64.87 -4.47,97.36 l -1.07,0.4 c -0.12,-2.84 -0.39,-5.66 -0.58,-8.49 -0.24,-9.6 0.04,-19.21 0.55,-28.8 0.8,-24.83 2.01,-49.72 5.42,-74.36 1.61,-9.95 3.11,-20.17 7.58,-29.33 z" style="fill:#5c5a5b"/><path id="path3364" d="m 733.96,294.97 c 5.92,-9.19 14.15,-17.13 24,-21.98 -8.76,6.06 -16.97,13.37 -22.56,22.54 -5.97,9.71 -7.47,21.21 -10.94,31.89 -1.75,5.25 -3.96,11.2 -9.42,13.6 2.6,-3.17 5.12,-6.51 6.49,-10.43 4.31,-11.8 5.5,-24.86 12.43,-35.62 z" style="fill:#5c5a5b"/><path id="path3366" d="m 993.56,317.54 c 3.84,-2.21 7.38,-5.06 11.69,-6.37 -1.87,1.82 -3.69,3.71 -5.67,5.41 -4.9,4.31 -11.04,7.07 -15.33,12.1 -9.81,4.53 -20.51,6.62 -31.09,8.51 -1.78,-0.05 -3.54,-0.26 -5.28,-0.43 3.44,-1.04 6.82,-2.31 10.12,-3.75 5.37,-2.35 11.35,-2.85 16.67,-5.36 6.49,-3 12.71,-6.52 18.89,-10.11 z" style="fill:#d10926"/><path id="path3368" d="m 805.12,323.9 c 1.76,-1.47 3.62,-3.17 6.01,-3.41 3.42,-0.35 6.46,1.57 9.53,2.77 1.87,1.24 4.97,-0.12 6.14,2.08 -4.37,0.46 -8.48,-1.09 -12.48,-2.59 -3.07,-1.36 -6.27,0.16 -9.2,1.15 z" style="fill:#5f5f5f"/><path id="path3370" d="m 612.4,350.33 c 0.56,-2.39 2.68,-3.86 4.37,-5.44 -3.46,5.07 -2.86,11.35 -1.37,16.99 5.9,26.5 11.51,53.16 13.94,80.24 1.87,22.25 1.49,45.11 -4.72,66.7 -3.57,10.87 -8.88,22.75 -19.71,28.05 5.22,-4.84 10.43,-9.97 13.36,-16.59 8.93,-19.04 10.14,-40.57 10.05,-61.27 -1.01,-33.5 -8.17,-66.4 -15.35,-99.02 -0.6,-3.16 -1.27,-6.46 -0.57,-9.66 z" style="fill:#5c5a5b"/><path id="path3372" d="m 207.3,351.17 c 0.16,-1.87 1.47,-3.23 2.88,-4.32 -2.05,7.13 -1.11,14.66 -2.77,21.86 -3.15,14.88 -10.01,28.76 -18.43,41.35 -3.07,4.48 -6.14,9.07 -10.3,12.63 0.74,-1.57 1.55,-3.11 2.57,-4.51 11.26,-14.35 20.03,-30.91 24.11,-48.76 1.51,-5.98 0.95,-12.21 1.94,-18.25 z" style="fill:#5c5a5b"/><path id="path3374" d="m 490.44,352.36 c 0.63,-1.44 1.85,-2.45 3.12,-3.32 -9.35,20.03 -11.25,42.4 -13.72,64.08 -0.24,2.14 -1.31,4.05 -2.34,5.9 -0.57,-2.28 -1.07,-4.58 -1.43,-6.9 0.5,0.99 1.02,1.97 1.56,2.96 1.56,-14.74 3.19,-29.52 6.53,-43.99 1.49,-6.42 3.28,-12.84 6.28,-18.73 z" style="fill:#5f5f5f"/><path id="path3376" d="m 281.79,369.11 c 5.72,-7.38 12.44,-14.52 21.25,-18.13 -5.04,3.93 -10.31,7.69 -14.52,12.55 -2.65,2.96 -4.46,6.85 -8.22,8.63 -0.01,-1.71 0.2805,-4.62724 0.4605,-6.30724 0.33,0.51 0.7095,2.74724 1.0295,3.25724 z" style="fill:#8d8d8d"/><path id="path3380" d="m 275.22,387.16 c 0.61,0.04 1.82,0.12 2.42,0.16 0.6,3.23 0.87,6.52 1.69,9.7 3.56,11.54 12.86,20.97 24.16,25.1 5.27,1.84 10.95,1.67 16.45,1.22 -3.94,3.14 -9.3,2.47 -13.86,1.41 -11.1,-2.74 -20.77,-10.6 -26.05,-20.7 -2.55,-4.79 -3.42,-10.19 -4.52,-15.43 -0.07,-0.37 -0.21,-1.1 -0.29,-1.46 z" style="fill:#8d8d8d"/><path id="path3382" d="m 275.51,388.62 c 1.1,5.24 1.97,10.64 4.52,15.43 5.28,10.1 14.95,17.96 26.05,20.7 4.56,1.06 9.92,1.73 13.86,-1.41 4.68,-5.24 6.06,-12.49 10.47,-17.92 4.65,-5.86 11.52,-10.26 18.99,-11.26 12.85,-1.33 26.4,-1.68 38.37,3.95 7.39,3.26 15.2,9.16 15.74,17.91 0.53,3.12 -1.15,5.92 -3.3,8.01 -5.42,1.95 -11.14,2.82 -16.82,3.59 -23.4,3.3 -46.16,11.15 -66.48,23.24 -16.52,9.27 -31.24,22.72 -40.06,39.65 -3.57,-3.56 -6.66,-7.57 -10.32,-11.04 -9.17,-9.41 -20.18,-16.67 -30.93,-24.1 -1.54,-1.36 -3.79,-2.38 -4.47,-4.38 2.73,-4.68 7.25,-8.02 10.7,-12.16 13.91,-14.69 26.36,-31.19 33.68,-50.21 z" style="fill:#e2002e"/><path id="path3384" d="m 701.1,393.14 c 3.05,-2.34 7.16,-1.15 10.2,0.58 4.23,2.9 4.97,8.53 5.11,13.27 0,7 -0.12,14.01 -0.25,21.01 -0.85,12.98 -0.52,26.01 -1.42,38.99 -0.08,16.67 -0.33,33.35 0.48,50.01 0.15,19.86 0.79,39.79 3.65,59.47 1.11,5.7 2.01,12.08 6.4,16.31 3.13,3.01 7.83,1.71 11.73,1.93 19.84,0.05 39.71,-0.37 59.54,0.25 -1.57,1.3 -3.6,1.52 -5.54,1.51 -20.35,-0.15 -40.7,-0.17 -61.04,0.01 -4.66,0.26 -8.18,-3.54 -9.85,-7.5 -2.7,-6.29 -3.38,-13.18 -4.29,-19.9 -2.52,-24.27 -2.52,-48.71 -3.09,-73.08 -0.56,-29.35 1.66,-58.65 1.69,-88 -0.07,-4.15 -0.37,-8.84 -3.4,-12.01 -2.62,-2.56 -6.61,-2.14 -9.92,-2.85 z" style="fill:#616161"/><path id="path3386" d="m 796.88,394.94 c 4.93,-4.74 12.37,-3.45 18.42,-2.15 -4.53,-0.43 -9.15,-0.36 -13.56,0.84 -1.63,0.41 -3.24,0.89 -4.86,1.31 z" style="fill:#a29d9e"/><path id="path3388" d="m 346.9085,394.45625 c 5.23,-1.84 11.6415,-2.17625 17.1015,-2.35625 13.05,-0.71 27.12,2.85 36.48,12.41 3.89,4.24 6.4,10.67 4.21,16.27 -0.62,2 -2.79,2.54 -4.49,3.25 2.15,-2.09 3.83,-4.89 3.3,-8.01 -0.54,-8.75 -8.35,-14.65 -15.74,-17.91 -11.97,-5.63 -25.52,-5.28 -38.37,-3.95 -0.42,-0.1 -2.0715,0.39625 -2.4915,0.29625 z" style="fill:#5c5a5b"/><path id="path3390" d="m 801.74,393.63 c 4.41,-1.2 9.03,-1.27 13.56,-0.84 1.9,0.39 3.79,0.91 5.69,1.37 3.66,1 7.39,1.74 11.14,2.37 -4.26,0.59 -8.57,0.18 -12.71,-0.94 -5.77,-1.51 -11.72,-2.26 -17.68,-1.96 z" style="fill:#5c5a5b"/><path id="path3392" d="m 820.99,394.16 c 4.38,0.56 8.8,0.75 13.22,0.73 -0.52,0.41 -1.56,1.23 -2.08,1.64 -3.75,-0.63 -7.48,-1.37 -11.14,-2.37 z" style="fill:#ada7a8"/><path id="path3394" d="m 79.01,423.99 c 0.19,-7.08 -0.26,-14.2 0.64,-21.25 0.19,2.83 0.46,5.65 0.58,8.49 -0.12,13.25 -0.31,26.51 -0.11,39.77 -0.01,13.88 -0.35,27.76 0.24,41.63 -0.23,2.54 -0.54,5.08 -0.71,7.64 -1.07,-10.72 -0.59,-21.52 -0.76,-32.27 0.3,-14.67 -0.2,-29.34 0.12,-44.01 z" style="fill:#6c323d"/><path id="path3396" d="m 80.23,411.23 1.07,-0.4 c -0.07,27.49 0,54.99 -0.08,82.48 l -0.86,-0.68 C 79.77,478.76 80.11,464.88 80.12,451 c -0.2,-13.26 -0.01,-26.52 0.11,-39.77 z" style="fill:#696969"/><path id="path3400" d="m 276.85,490.51 c 8.82,-16.93 23.54,-30.38 40.06,-39.65 -1.35,1.3 -2.79,2.52 -4.33,3.6 -10.88,7.21 -20.59,16.29 -28.26,26.88 -2.44,3.09 -3.69,7.36 -7.47,9.17 z" style="fill:#787878"/><path id="path3402" d="m 380.05,476.37 c 7.45,-1.86 15.72,-3.33 23.13,-0.67 -1.45,0.04 -2.9,0.09 -4.34,0.16 -6.12,0.16 -12.29,0.42 -18.26,1.88 -6.48,1.49 -12.51,4.37 -18.37,7.42 4.88,-4.69 11.58,-6.69 17.84,-8.79 z" style="fill:#787878"/><path id="path3404" d="m 380.58,477.74 c 5.97,-1.46 12.14,-1.72 18.26,-1.88 3.26,1.44 7.44,2.86 8.41,6.76 1.64,6.66 0.68,13.6 0.85,20.38 -0.25,10.34 0.93,20.95 -1.96,31.04 -1.23,1.44 -2.72,2.63 -4.22,3.78 -9.32,3.29 -19.55,3 -29.15,1.23 -9.19,-1.87 -18.53,-5.8 -24.55,-13.27 -5.05,-6.18 -6.05,-15.15 -2.82,-22.4 3.4,-7.71 9.83,-13.73 16.81,-18.22 5.86,-3.05 11.89,-5.93 18.37,-7.42 z" style="fill:#e2002e"/><path id="path3406" d="m 398.84,475.86 c 1.44,-0.07 2.89,-0.12 4.34,-0.16 3.11,0.99 5.59,3.67 6.11,6.93 -0.27,12.79 -0.05,25.59 -0.17,38.38 -0.16,4.44 0.01,9.39 -2.98,13.03 2.89,-10.09 1.71,-20.7 1.96,-31.04 -0.17,-6.78 0.79,-13.72 -0.85,-20.38 -0.97,-3.9 -5.15,-5.32 -8.41,-6.76 z" style="fill:#703943"/><path id="path3408" d="m 409.29,482.63 c 1.93,6.28 0.75,12.92 1.03,19.37 -0.23,9.52 0.74,19.18 -1.18,28.58 -0.66,3.65 -3.5,6.68 -7.22,7.24 1.5,-1.15 2.99,-2.34 4.22,-3.78 2.99,-3.64 2.82,-8.59 2.98,-13.03 0.12,-12.79 -0.1,-25.59 0.17,-38.38 z" style="fill:#616161"/><path id="path3410" d="m 173.92,491.17 c 3.92,-2.24 9.18,-3.14 12.89,0.02 8.93,7.05 15.25,16.85 20.31,26.91 9.09,18.25 14.35,38.5 14.68,58.91 0.36,4.84 0.27,10.51 4.07,14.12 3.75,3.55 9.3,3.43 14.13,3.48 19.74,-0.21 39.48,0.26 59.2,-0.27 -3.73,2 -8.02,2.24 -12.16,2.16 -17.31,-0.17 -34.62,0.07 -51.93,-0.11 -5.92,-0.05 -12.48,-3.12 -14.07,-9.26 -1.65,-6.92 -1.02,-14.11 -1.87,-21.13 -2.34,-19.98 -8.64,-39.65 -19.37,-56.73 -4.31,-6.52 -9.03,-13.13 -15.67,-17.45 -3.03,-2.12 -6.83,-0.66 -10.21,-0.65 z" style="fill:#787878"/><path id="path3412" d="m 80.36,492.63 0.86,0.68 c 0.49,24.26 1.09,48.6 4.47,72.66 1.19,7.44 2.34,15.04 5.51,21.94 1.57,3.48 4.64,6.91 8.79,6.73 21.12,0.12 42.24,-0.04 63.36,0.06 -2.08,1.68 -4.82,1.64 -7.35,1.69 -18,-0.01 -36.01,-0.06 -54.01,0.03 -2.88,-0.03 -6.09,-0.04 -8.4,-2.05 -4.28,-3.66 -5.92,-9.35 -7.31,-14.6 -3.61,-15 -4.42,-30.46 -5.57,-45.79 -0.29,-11.24 -1.51,-22.46 -1.06,-33.71 0.17,-2.56 0.48,-5.1 0.71,-7.64 z" style="fill:#5c5a5b"/><path id="path3416" d="m 483.48,543.3 c 2.96,2.64 3.61,6.7 5.02,10.21 5.77,15.81 15.94,30.81 31.07,38.91 15.72,8.58 34.36,9.2 51.77,7.19 -3.65,2.39 -8.19,2.01 -12.34,2.44 -17.24,0.77 -35.56,-2.66 -49.23,-13.82 -13.57,-10.6 -20.91,-26.8 -26.52,-42.63 0.06,-0.57 0.17,-1.72 0.23,-2.3 z" style="fill:#5c5a5b"/><path id="path3420" d="m 606.12,584.1 c 3.68,-2.79 7.77,-5.49 12.64,-4.79 2.1,5.08 0.36,11.91 5.42,15.52 7.68,5.53 17.74,5.54 26.82,5.69 8.08,-0.05 16.2,0.37 24.25,-0.57 -4.06,2.17 -8.79,2.03 -13.26,2.28 -8.7,0.07 -17.45,0.08 -26.1,-1.05 -5.7,-0.92 -12.04,-2.56 -15.55,-7.55 -2.67,-3.62 -2.05,-8.36 -2.55,-12.57 -4.21,-0.81 -8.01,1.32 -11.67,3.04 z" style="fill:#5c5a5b"/><path id="path3422" d="m 307.4,579.91 c 24.83759,10.62628 44.72126,12.65482 65.37,14.3 3.22,0.4 6.4,1.06 9.6,1.64 -17.71,0.17 -35.45,-2.24 -52.59,-6.64 -7.68,-2.21 -15.46,-4.54 -22.5,-8.37 z" style="fill:#5c5a5b"/><path id="path3424" d="m 431.99,594.42 c 16.8,-0.52 33.72,-1.16 50.12,-5.17 -5.91,3.77 -13.14,4.17 -19.91,5.06 -22.99,2.25 -46.13,1.98 -69.2,2.06 -3.55,0.01 -7.12,0.1 -10.63,-0.52 -3.2,-0.58 -6.38,-1.24 -9.6,-1.64 19.73,0.63 39.48,0.34 59.22,0.21 z" style="fill:#787878"/><path id="path3428" d="m 932.16,677.16 c 4.23,-4.66 10.55594,-7.58514 16.65594,-6.53514 5.32,1.21 16.99517,11.33461 10.86406,11.92514 -5.2,-2.82 -11.12,-5.34 -17.14,-3.9 -5.79,1.11 -8.84,6.86 -11.18,11.7 -5.46,12.6 -7.68,26.27 -10.03,39.71 -0.35,1.25 -0.34,3.76 -2.34,3.26 -44.11,-3.14 -88.56914,-6.08914 -132.65914,-9.40914 2.35,-2.26 4.73914,-5.53086 8.45914,-5.33086 27.14,0.33 54.19,3.04 81.28,4.58 12.82,0.59 24.81715,1.39715 38.43,2.23 2.52098,-17.71023 7.1516,-36.68374 17.66,-48.23 z" style="fill:#bd111d"/><g id="g3438" transform="translate(44.8,0)"><path style="fill:#bd111c" id="path3414" d="m 1274.17,523.84 c 1.72,-2.27 4.29,-3.67 6.55,-5.34 -0.6214,51.75866 -12.044,108.7092 -31.11,149.93 -35.0621,75.94016 -85.3978,107.50987 -164.7459,115.81706 0.331,-2.87773 0.2318,-5.4257 0.2318,-5.4257 43.9462,-5.74767 80.9609,-17.52493 116.0875,-52.00807 23.3627,-24.28464 39.8336,-53.92254 50.7966,-83.08329 13.17,-35.52 18.12,-73.41 20.79,-111.01 0.3,-2.97 0.21,-6.09 1.4,-8.88 z"/><path style="fill:#cb0b24" id="path3430" d="M 913.11886,680.80102 C 913.73344,671.76666 937.37,699.88 940.59,702.58 c 26.04091,22.54416 52.53776,47.26508 81.9,64.09 37.1789,11.19068 54.4541,13.06436 62.8255,11.96964 0.1358,3.53202 -0.4214,5.59445 -0.4214,5.59445 C 1020.2694,780.73925 1005.79,763.04 993.32,753.91 964.46694,729.97191 939.22163,708.24296 913.11886,680.80102 Z"/></g></svg>